<?xml version="1.0" standalone="no"?>
<!DOCTYPE svg PUBLIC "-//W3C//DTD SVG 20010904//EN"
 "http://www.w3.org/TR/2001/REC-SVG-20010904/DTD/svg10.dtd">
<svg version="1.0" xmlns="http://www.w3.org/2000/svg"
 width="640.000000pt" height="640.000000pt" viewBox="0 0 640.000000 640.000000"
 preserveAspectRatio="xMidYMid meet">
<metadata>
Created by potrace 1.11, written by Peter Selinger 2001-2013
</metadata>
<g transform="translate(0.000000,640.000000) scale(0.100000,-0.100000)"
fill="#000000" stroke="none">
<path d="M2920 6383 c-740 -70 -1419 -383 -1952 -901 -501 -487 -817 -1109
-931 -1832 -18 -117 -21 -177 -21 -450 0 -273 3 -333 21 -450 114 -723 430
-1345 931 -1832 494 -480 1081 -770 1782 -881 117 -18 177 -21 450 -21 273 0
333 3 450 21 363 57 680 157 991 313 75 38 117 64 114 72 -3 7 -376 503 -828
1103 -618 818 -828 1090 -843 1089 -10 -1 -64 -14 -119 -30 -92 -25 -115 -27
-290 -28 -208 -1 -269 8 -435 66 -405 141 -712 499 -806 938 -24 116 -25 352
-1 473 148 744 910 1191 1624 952 438 -147 750 -506 837 -964 23 -118 21 -334
-3 -458 -32 -164 -93 -318 -176 -442 -20 -30 -34 -60 -31 -68 6 -14 1628
-2167 1655 -2196 16 -17 23 -12 132 100 490 503 780 1085 892 1793 18 117 21
177 21 450 0 273 -3 333 -21 450 -111 701 -401 1288 -881 1782 -486 499 -1113
819 -1827 930 -103 16 -189 21 -410 23 -154 1 -300 1 -325 -2z"/>
<path d="M2410 4706 c-137 -25 -268 -60 -315 -84 -54 -27 -7 -24 92 7 74 22
361 81 398 81 3 0 5 5 5 10 0 14 -38 11 -180 -14z"/>
<path d="M2802 4702 c-15 -10 37 -22 96 -22 34 0 305 -67 381 -94 24 -9 51
-16 60 -16 31 1 -20 29 -89 50 -209 62 -420 101 -448 82z"/>
<path d="M2465 4650 c-94 -5 -141 -14 -218 -38 -53 -18 -105 -32 -114 -32 -13
0 -14 -3 -5 -12 12 -12 67 -2 202 38 45 14 106 17 320 18 l265 1 125 -33 c69
-18 185 -54 258 -78 141 -48 180 -53 116 -15 -42 25 -384 126 -499 147 -74 14
-250 15 -450 4z"/>
<path d="M2537 4600 c-109 -10 -260 -42 -392 -82 -106 -32 -132 -45 -117 -60
6 -6 35 1 72 16 283 115 675 137 947 52 59 -18 124 -37 143 -41 70 -15 236
-87 265 -116 33 -31 65 -38 65 -14 0 24 -67 61 -199 110 -299 112 -556 156
-784 135z"/>
<path d="M2017 4535 c-27 -7 -59 -23 -70 -35 -17 -18 -18 -21 -5 -17 9 3 34
11 55 16 40 11 82 36 73 44 -3 3 -27 -1 -53 -8z"/>
<path d="M2587 4543 c-127 -6 -79 -23 66 -23 73 0 170 -5 217 -10 47 -5 105
-12 130 -15 l45 -5 -34 16 c-65 29 -248 46 -424 37z"/>
<path d="M2325 4506 c-27 -7 -68 -21 -90 -31 -36 -16 -37 -19 -17 -23 13 -2
40 3 61 11 20 8 58 18 83 22 26 4 55 13 65 21 16 12 15 13 -17 13 -19 0 -57
-6 -85 -13z"/>
<path d="M2580 4490 c-117 -9 -210 -28 -210 -42 0 -7 15 -8 43 -3 88 15 185
24 257 25 163 1 461 -38 579 -75 96 -31 321 -165 276 -165 -3 0 -51 23 -106
51 -155 77 -260 108 -426 124 -78 7 -146 16 -152 19 -19 12 -228 23 -281 15
-30 -5 -107 -13 -170 -18 -63 -5 -131 -16 -150 -24 -19 -8 -65 -20 -102 -27
-63 -11 -109 -32 -98 -44 3 -3 73 12 155 33 208 54 367 68 568 52 293 -24 491
-71 657 -158 84 -43 170 -66 170 -45 0 20 -98 97 -181 144 -130 73 -221 99
-375 108 -72 5 -157 13 -190 19 -97 16 -164 19 -264 11z"/>
<path d="M1913 4435 c-3 -9 -4 -18 -1 -20 8 -9 78 16 73 26 -10 15 -65 11 -72
-6z"/>
<path d="M2019 4411 c-99 -34 -166 -67 -157 -77 3 -2 42 10 89 26 46 16 101
30 121 30 34 0 68 26 68 52 0 10 1 11 -121 -31z"/>
<path d="M2167 4423 c-15 -14 -6 -19 28 -15 19 2 38 8 41 13 6 10 -59 12 -69
2z"/>
<path d="M2515 4383 c-44 -7 -127 -20 -185 -29 -114 -17 -251 -58 -345 -103
-89 -43 -32 -40 75 4 49 21 158 51 260 73 163 34 186 37 340 36 145 0 184 -4
323 -32 87 -18 185 -41 219 -53 67 -22 206 -90 311 -151 38 -22 71 -37 74 -34
26 25 -181 138 -367 200 -231 77 -534 115 -705 89z"/>
<path d="M2465 4324 c-108 -18 -356 -81 -368 -93 -26 -26 31 -20 127 14 157
54 238 67 421 67 173 0 298 -16 444 -58 111 -32 262 -91 281 -109 26 -26 -27
-18 -96 15 -120 56 -421 124 -529 118 l-60 -3 45 -14 c25 -7 86 -17 135 -21
50 -4 138 -19 197 -34 105 -25 354 -119 471 -178 50 -25 58 -27 55 -11 -3 18
-28 36 -115 86 -26 15 -63 38 -80 51 -82 60 -308 134 -522 170 -113 19 -294
19 -406 0z"/>
<path d="M1907 4316 c-27 -7 -56 -21 -65 -30 -16 -16 -15 -17 13 -11 66 15
125 37 119 46 -6 11 -7 11 -67 -5z"/>
<path d="M2490 4283 c-96 -15 -202 -45 -413 -119 -226 -80 -317 -121 -317
-144 0 -14 5 -13 61 16 48 24 235 98 379 149 117 42 213 65 323 77 59 6 107
15 107 20 0 8 -91 9 -140 1z"/>
<path d="M1880 4251 c-14 -5 -41 -16 -60 -27 -32 -17 -33 -19 -12 -22 23 -4
112 36 112 50 0 9 -6 9 -40 -1z"/>
<path d="M2470 4229 c-136 -20 -620 -195 -682 -247 -54 -46 -27 -42 80 12 237
119 534 212 712 223 58 3 114 9 125 14 26 10 -163 9 -235 -2z"/>
<path d="M2010 4200 c-8 -6 -59 -24 -112 -41 -54 -17 -108 -39 -120 -49 -17
-14 13 -8 122 26 144 45 202 74 150 74 -14 0 -32 -5 -40 -10z"/>
<path d="M2660 4199 c-172 -17 -243 -29 -331 -55 -49 -15 -89 -31 -89 -36 0
-11 -3 -12 129 22 68 17 172 34 247 41 71 6 155 13 187 16 32 3 93 0 135 -7
163 -26 446 -141 578 -235 61 -44 84 -54 84 -37 0 33 -205 152 -367 213 -216
82 -351 100 -573 78z"/>
<path d="M2880 4154 c7 -7 46 -21 88 -30 42 -9 89 -23 105 -31 15 -7 66 -27
113 -44 64 -23 124 -56 240 -135 86 -58 163 -108 172 -111 9 -3 -3 15 -27 40
-47 49 -191 143 -306 200 -135 66 -414 147 -385 111z"/>
<path d="M2590 4144 c-72 -7 -177 -27 -240 -46 -113 -34 -326 -123 -304 -126
12 -2 55 11 97 27 168 67 277 100 371 111 121 16 324 8 424 -15 39 -9 78 -15
85 -12 6 2 -47 18 -118 35 -126 31 -197 37 -315 26z"/>
<path d="M2571 4090 c-104 -12 -200 -31 -207 -41 -7 -12 1 -12 97 7 110 21
326 14 509 -16 133 -22 259 -50 293 -64 10 -5 17 -4 17 2 0 18 -119 51 -290
81 -190 34 -314 43 -419 31z"/>
<path d="M2090 4061 c-41 -15 -100 -41 -130 -56 -81 -42 -37 -44 57 -2 43 19
99 42 126 51 26 10 45 22 41 27 -7 12 -8 12 -94 -20z"/>
<path d="M2420 4030 c-110 -12 -177 -25 -230 -45 -85 -31 -291 -137 -310 -160
-24 -29 21 -16 99 29 107 61 198 106 257 126 81 28 254 43 445 38 147 -4 190
-9 279 -32 131 -34 282 -108 399 -197 115 -87 173 -120 190 -110 15 10 11 13
-81 65 -27 15 -48 31 -48 36 0 16 -137 99 -255 156 -121 58 -187 76 -349 99
-134 18 -197 18 -396 -5z"/>
<path d="M2400 3985 c-134 -17 -172 -30 -347 -123 -137 -72 -242 -151 -215
-160 13 -4 26 4 106 68 55 43 268 152 331 170 64 17 295 50 354 50 65 0 148
-13 299 -47 63 -14 116 -23 119 -20 9 10 -33 25 -132 47 -125 28 -360 35 -515
15z"/>
<path d="M3149 3976 c14 -17 51 -28 51 -15 0 10 -33 29 -51 29 -9 0 -9 -3 0
-14z"/>
<path d="M2529 3959 c-156 -13 -259 -42 -398 -112 -68 -34 -142 -79 -165 -99
-48 -43 -30 -51 23 -10 77 59 251 143 359 175 68 19 99 22 272 21 213 0 242
-5 447 -70 73 -23 132 -49 167 -74 65 -45 96 -58 96 -37 0 8 -8 21 -17 29 -19
15 -134 83 -191 112 -33 17 -34 17 -27 -3 8 -26 9 -26 -71 4 -71 27 -242 61
-339 68 -33 2 -103 1 -156 -4z"/>
<path d="M1954 3946 c-18 -8 -35 -19 -39 -25 -3 -6 -38 -27 -76 -46 -39 -20
-69 -42 -69 -50 0 -24 19 -18 99 33 42 26 89 54 105 62 51 26 33 49 -20 26z"/>
<path d="M1813 3930 c-39 -17 -58 -40 -33 -40 13 0 110 49 110 55 0 11 -37 4
-77 -15z"/>
<path d="M3272 3927 c33 -27 266 -173 291 -183 39 -14 14 18 -40 53 -32 20
-79 53 -104 75 -51 41 -122 78 -154 77 -18 0 -17 -2 7 -22z"/>
<path d="M2425 3904 l-40 -14 65 5 c36 3 79 9 95 14 26 8 23 9 -25 9 -30 0
-73 -6 -95 -14z"/>
<path d="M2595 3897 c-27 -13 -18 -14 105 -14 143 1 171 -4 310 -55 119 -43
363 -207 444 -297 11 -11 28 -21 40 -21 29 0 -131 147 -247 228 -147 101 -327
160 -512 168 -81 3 -118 1 -140 -9z"/>
<path d="M2412 3868 c-23 -5 -40 -13 -37 -17 5 -8 75 2 130 18 29 9 29 9 -10
9 -22 0 -59 -4 -83 -10z"/>
<path d="M2270 3858 c-167 -74 -241 -121 -356 -227 -96 -88 -120 -117 -129
-154 -10 -40 8 -33 40 15 46 69 123 145 209 206 114 80 125 87 210 122 42 18
78 36 82 41 7 12 -25 10 -56 -3z"/>
<path d="M2525 3849 c-38 -5 -74 -11 -80 -13 -5 -1 78 -3 185 -2 157 1 208 -2
260 -17 137 -37 304 -144 464 -297 56 -54 91 -80 107 -80 21 0 19 5 -26 51
-81 83 -293 248 -368 286 -109 54 -238 83 -366 82 -58 -1 -137 -6 -176 -10z"/>
<path d="M2245 3789 c-49 -22 -101 -51 -115 -65 l-25 -25 31 11 c18 6 67 29
110 51 43 21 89 39 101 39 26 0 31 15 7 24 -9 3 -16 6 -17 5 -1 0 -42 -18 -92
-40z"/>
<path d="M2486 3805 c-104 -18 -164 -38 -266 -91 -85 -44 -220 -139 -227 -161
-8 -22 34 -2 83 41 120 104 296 181 470 205 78 12 250 -6 342 -35 88 -28 192
-101 366 -256 146 -130 196 -166 196 -141 0 4 -19 25 -43 48 -24 22 -86 80
-138 129 -111 105 -259 206 -346 235 -123 41 -286 51 -437 26z"/>
<path d="M1743 3783 c-7 -2 -13 -11 -13 -19 0 -12 4 -12 30 1 17 9 30 18 30
20 0 6 -31 5 -47 -2z"/>
<path d="M2540 3780 c-61 -14 -224 -66 -248 -79 -51 -28 -8 -21 110 17 67 22
149 43 181 47 31 4 57 11 57 16 0 11 -51 10 -100 -1z"/>
<path d="M2650 3755 c-112 -19 -231 -53 -262 -75 -15 -11 -39 -20 -53 -20 -14
0 -28 -7 -31 -15 -4 -8 -16 -15 -28 -15 -31 0 -90 -39 -125 -83 -50 -64 -133
-346 -134 -459 -1 -75 20 -137 58 -168 26 -21 26 -8 0 66 -32 91 -31 155 4
287 44 162 78 243 121 288 43 45 72 54 45 13 -28 -43 -8 -39 44 9 62 58 148
101 264 132 119 32 203 32 302 1 97 -31 160 -77 305 -224 199 -202 240 -234
240 -190 0 17 -275 284 -345 336 -75 55 -131 84 -219 111 -77 24 -82 24 -186
6z"/>
<path d="M3422 3645 c48 -47 92 -85 98 -85 19 0 10 18 -22 45 l-33 27 38 -5
c20 -3 37 -4 37 -2 0 9 -106 69 -152 86 l-53 20 87 -86z"/>
<path d="M2600 3704 c-36 -7 -90 -23 -120 -34 -57 -21 -150 -85 -158 -107 -8
-25 27 -13 65 22 102 94 305 141 422 96 74 -28 193 -115 231 -169 35 -49 279
-302 292 -302 26 0 -1 48 -60 107 -37 37 -101 106 -141 153 -128 147 -207 204
-328 235 -69 18 -117 18 -203 -1z"/>
<path d="M1883 3679 c-25 -9 -32 -39 -9 -39 16 0 39 26 34 38 -2 6 -13 6 -25
1z"/>
<path d="M2021 3653 c-44 -31 -252 -263 -235 -263 26 0 72 42 109 100 32 50
63 83 114 120 62 45 94 80 73 80 -5 0 -32 -17 -61 -37z"/>
<path d="M1768 3664 c-30 -16 -39 -54 -13 -54 15 0 64 47 65 63 0 11 -22 8
-52 -9z"/>
<path d="M2611 3665 c-36 -8 -89 -26 -118 -41 -69 -33 -167 -124 -204 -188
-26 -45 -29 -60 -28 -131 1 -106 18 -179 43 -183 16 -3 18 0 12 30 -40 207
-33 252 57 346 74 77 115 104 196 132 68 22 174 27 218 8 26 -11 26 -12 6 -15
-16 -3 0 -15 65 -49 47 -24 87 -44 89 -44 2 0 3 6 3 13 0 22 -63 75 -122 102
-71 33 -135 38 -217 20z"/>
<path d="M2194 3647 c-39 -23 -127 -92 -174 -137 -37 -35 -52 -60 -70 -114
-12 -38 -38 -95 -57 -127 -40 -67 -45 -111 -16 -141 l21 -20 21 21 c19 19 19
23 7 59 -13 37 -12 45 13 118 31 88 75 179 91 189 25 16 21 -10 -19 -105 -35
-83 -44 -119 -51 -203 -13 -143 -13 -184 1 -170 6 6 17 65 25 131 8 77 24 152
42 209 17 48 33 100 36 116 8 33 62 95 129 149 46 36 47 52 1 25z"/>
<path d="M1784 3586 c-34 -34 -43 -56 -24 -56 9 0 29 19 55 52 40 49 17 52
-31 4z"/>
<path d="M2535 3587 c-65 -31 -145 -102 -145 -127 0 -17 8 -12 75 45 82 69
145 99 197 92 55 -7 177 -68 216 -107 18 -18 52 -60 74 -94 79 -115 139 -185
216 -249 134 -110 157 -99 31 15 -50 44 -109 112 -152 173 -101 145 -154 196
-250 241 -115 54 -170 56 -262 11z"/>
<path d="M2593 3560 c-13 -5 -23 -14 -23 -21 0 -13 34 -6 84 16 l31 13 -35 1
c-19 0 -45 -4 -57 -9z"/>
<path d="M2650 3533 c-37 -13 -90 -58 -104 -88 -11 -23 -16 -62 -16 -125 0
-95 10 -130 37 -130 13 0 14 8 9 43 -24 158 -20 191 25 236 40 41 95 57 141
42 44 -15 123 -93 153 -152 35 -68 136 -188 202 -239 32 -25 65 -60 73 -78 16
-34 19 -36 39 -23 20 13 4 47 -34 71 -48 30 -158 151 -218 240 -73 108 -103
144 -152 179 -35 25 -53 31 -92 30 -26 0 -55 -3 -63 -6z"/>
<path d="M2262 3497 c-90 -92 -89 -281 3 -482 32 -72 120 -179 155 -190 36
-11 45 7 11 24 -66 35 -165 204 -196 335 -26 110 -20 171 25 264 21 45 38 82
37 82 -2 0 -17 -15 -35 -33z"/>
<path d="M2513 3497 c-30 -33 -45 -66 -38 -84 7 -19 13 -13 48 49 29 50 23 71
-10 35z"/>
<path d="M1903 3452 c-26 -32 -60 -68 -75 -78 -28 -19 -43 -43 -33 -52 3 -3
19 7 35 23 40 39 40 14 0 -62 -16 -31 -30 -62 -30 -70 0 -25 24 -9 42 28 37
74 118 263 114 267 -2 2 -26 -23 -53 -56z"/>
<path d="M2188 3489 c-8 -13 -18 -34 -22 -46 -11 -34 19 -19 34 17 16 39 8 59
-12 29z"/>
<path d="M2980 3491 c0 -41 243 -317 301 -341 16 -7 32 -10 36 -7 3 4 -34 46
-83 94 -49 49 -121 128 -159 177 -73 94 -95 112 -95 77z"/>
<path d="M2663 3475 c-55 -23 -78 -104 -54 -181 5 -16 12 -46 16 -67 6 -36 28
-58 42 -43 4 4 -3 40 -15 81 -39 132 -23 195 49 195 43 0 99 -60 164 -175 61
-108 150 -201 228 -240 32 -15 60 -25 62 -23 3 3 -27 29 -66 58 -78 58 -168
164 -224 264 -44 79 -75 113 -120 132 -41 17 -42 17 -82 -1z"/>
<path d="M2412 3391 c-9 -30 -10 -47 -3 -54 15 -15 23 12 19 59 l-3 39 -13
-44z"/>
<path d="M2356 3405 c-9 -9 -20 -24 -25 -34 -15 -27 5 -167 33 -227 21 -46 29
-55 48 -52 20 3 22 8 20 48 -5 97 -14 160 -23 160 -17 0 -21 -27 -10 -65 5
-20 7 -43 4 -51 -8 -21 -31 -17 -38 6 -11 34 -8 146 5 185 14 42 9 53 -14 30z"/>
<path d="M2672 3362 c10 -138 125 -297 268 -372 125 -65 144 -48 27 24 -53 33
-108 71 -122 85 -45 44 -101 144 -124 222 -13 41 -24 80 -26 87 -3 6 -10 12
-16 12 -8 0 -10 -19 -7 -58z"/>
<path d="M2726 3412 c-7 -12 23 -54 34 -47 5 3 4 16 -2 30 -12 26 -23 31 -32
17z"/>
<path d="M2129 3333 c-12 -31 -11 -36 26 -206 29 -138 43 -170 97 -232 45 -51
82 -79 118 -90 18 -5 9 7 -36 48 -36 33 -73 79 -91 114 -40 76 -83 246 -83
328 0 69 -13 84 -31 38z"/>
<path d="M2465 3316 c-12 -46 1 -179 23 -227 24 -56 59 -89 72 -70 9 16 4 36
-22 71 -20 29 -48 129 -49 180 0 19 -4 44 -9 55 -7 18 -8 17 -15 -9z"/>
<path d="M2765 3303 c25 -60 103 -170 153 -214 59 -52 228 -137 243 -122 7 7
-14 23 -73 51 -95 46 -155 94 -183 146 -11 20 -27 39 -36 41 -10 3 -24 22 -33
43 -33 74 -42 87 -64 90 -23 3 -23 3 -7 -35z"/>
<path d="M2090 3129 c0 -90 15 -155 37 -164 28 -10 32 6 12 62 -10 31 -19 78
-19 104 0 52 -7 79 -21 79 -5 0 -9 -37 -9 -81z"/>
<path d="M2569 3146 c-9 -18 -7 -32 7 -61 25 -53 124 -121 124 -85 0 5 -9 15
-21 22 -11 7 -36 43 -55 81 -19 37 -37 67 -39 67 -3 0 -10 -11 -16 -24z"/>
<path d="M2657 3154 c-11 -11 5 -34 23 -34 27 0 34 17 11 29 -23 13 -26 13
-34 5z"/>
<path d="M2702 3111 c-8 -5 -12 -17 -10 -27 7 -37 182 -148 271 -172 56 -16
43 4 -33 49 -36 21 -84 49 -108 63 -23 14 -52 41 -63 61 -21 36 -34 41 -57 26z"/>
<path d="M2320 3090 c0 -29 64 -153 101 -195 68 -77 63 -13 -7 75 -24 31 -44
65 -44 76 0 22 -26 64 -41 64 -5 0 -9 -9 -9 -20z"/>
<path d="M2415 3060 c-6 -10 61 -117 104 -163 31 -35 92 -67 123 -67 19 1 16
5 -17 22 -59 30 -75 47 -100 104 -38 84 -91 135 -110 104z"/>
<path d="M2649 2945 c76 -52 165 -94 177 -83 7 8 -198 126 -231 133 -22 5 -8
-8 54 -50z"/>
<path d="M2720 2971 c0 -12 109 -68 150 -76 32 -6 33 -6 15 7 -77 55 -165 92
-165 69z"/>
<path d="M2560 2951 c0 -23 123 -102 137 -88 6 7 -12 22 -75 62 -58 38 -62 39
-62 26z"/>
<path d="M2220 2841 c14 -26 51 -52 63 -44 6 3 -4 19 -22 35 -37 33 -57 37
-41 9z"/>
</g>
</svg>
